<?xml version="1.0" encoding="UTF-8" standalone="no"?>
<!-- Created with Inkscape (http://www.inkscape.org/) -->

<svg
   version="1.1"
   id="svg2"
   xml:space="preserve"
   width="513.07867"
   height="343.21201"
   viewBox="0 0 513.07867 343.21201"
   sodipodi:docname="Bottom_part_tocut.svg"
   inkscape:version="1.1.2 (0a00cf5339, 2022-02-04)"
   xmlns:inkscape="http://www.inkscape.org/namespaces/inkscape"
   xmlns:sodipodi="http://sodipodi.sourceforge.net/DTD/sodipodi-0.dtd"
   xmlns="http://www.w3.org/2000/svg"
   xmlns:svg="http://www.w3.org/2000/svg"><defs
     id="defs6" /><sodipodi:namedview
     id="namedview4"
     pagecolor="#ffffff"
     bordercolor="#666666"
     borderopacity="1.0"
     inkscape:pageshadow="2"
     inkscape:pageopacity="0.0"
     inkscape:pagecheckerboard="0"
     showgrid="false"
     fit-margin-left="1"
     lock-margins="true"
     fit-margin-top="1"
     fit-margin-right="1"
     fit-margin-bottom="1"
     inkscape:zoom="1.0408712"
     inkscape:cx="428.96758"
     inkscape:cy="232.49755"
     inkscape:window-width="1920"
     inkscape:window-height="1007"
     inkscape:window-x="0"
     inkscape:window-y="0"
     inkscape:window-maximized="1"
     inkscape:current-layer="g10" /><g
     id="g8"
     inkscape:groupmode="layer"
     inkscape:label="Bottom_part"
     transform="matrix(1.3333333,0,0,-1.3333333,-7.3273331,360.67266)"><g
       id="g10"
       transform="translate(6.6,14.2)"><path
         d="M 0,0 V 255.2 M 85,42.6 v 170 m 28.3,-170 v 170 m 28.4,-170 v 170 M 170,42.6 v 170 m 141.8,-170 v 170 m -28.4,-170 v 170 m -28.3,-170 v 170 m -28.4,-170 v 170 m -28.3,-170 v 170 m 172.9,26.3 1.3,0.1 1.2,0.5 1,0.8 0.8,1 0.5,1.2 0.2,1.3 -0.2,1.3 -0.5,1.2 -0.8,1 -1,0.8 -1.2,0.5 -1.3,0.2 -1.3,-0.2 -1.2,-0.5 -1,-0.8 -0.8,-1 -0.5,-1.2 -0.2,-1.3 0.2,-1.3 0.5,-1.2 0.8,-1 1,-0.8 1.2,-0.5 1.3,-0.1 m 0,-232.5 1.3,0.2 1.2,0.5 1,0.8 0.8,1 0.5,1.2 0.2,1.3 -0.2,1.3 -0.5,1.2 -0.8,1 -1,0.8 -1.2,0.5 -1.3,0.1 -1.3,-0.1 -1.2,-0.5 -1,-0.8 -0.8,-1 -0.5,-1.2 -0.2,-1.3 0.2,-1.3 0.5,-1.2 0.8,-1 1,-0.8 1.2,-0.5 1.3,-0.2 m -360,0 1.3,0.2 1.2,0.5 1,0.8 0.8,1 0.5,1.2 0.2,1.3 -0.2,1.3 -0.5,1.2 -0.8,1 -1,0.8 -1.2,0.5 -1.3,0.1 L 10,16.2 8.8,15.7 7.8,14.9 7,13.9 6.5,12.7 6.3,11.4 6.5,10.1 7,8.9 7.8,7.9 8.8,7.1 10,6.6 11.3,6.4 m 0,232.5 1.3,0.1 1.2,0.5 1,0.8 0.8,1 0.5,1.2 0.2,1.3 -0.2,1.3 -0.5,1.2 -0.8,1 -1,0.8 -1.2,0.5 -1.3,0.2 -1.3,-0.2 -1.2,-0.5 -1,-0.8 -0.8,-1 -0.5,-1.2 -0.2,-1.3 0.2,-1.3 0.5,-1.2 0.8,-1 1,-0.8 1.2,-0.5 1.3,-0.1 m 73.7,-26.3 -0.2,1.6 -0.5,1.5 -0.8,1.3 -1.2,1.2 -1.3,0.8 -1.5,0.5 -1.6,0.2 -1.6,-0.2 -1.5,-0.5 -1.3,-0.8 -1.1,-1.2 -0.9,-1.3 -0.5,-1.5 -0.2,-1.6 m 0,-170 v 170 m 0,-170 0.2,-1.6 0.5,-1.5 0.9,-1.4 1.1,-1.1 1.3,-0.8 1.5,-0.6 1.6,-0.1 1.6,0.1 1.5,0.6 1.3,0.8 1.2,1.1 0.8,1.4 0.5,1.5 0.2,1.6 m 28.3,170 -0.1,1.6 -0.6,1.5 -0.8,1.3 -1.1,1.2 -1.4,0.8 -1.5,0.5 -1.5,0.2 -1.6,-0.2 -1.5,-0.5 -1.4,-0.8 -1.1,-1.2 -0.8,-1.3 -0.5,-1.5 -0.2,-1.6 m 0,-170 v 170 m 0,-170 0.2,-1.6 0.5,-1.5 0.8,-1.4 1.1,-1.1 1.4,-0.8 1.5,-0.6 1.6,-0.1 1.5,0.1 1.5,0.6 1.4,0.8 1.1,1.1 0.8,1.4 0.6,1.5 0.1,1.6 m 28.4,170 -0.2,1.6 -0.5,1.5 -0.9,1.3 -1.1,1.2 -1.3,0.8 -1.5,0.5 -1.6,0.2 -1.6,-0.2 -1.5,-0.5 -1.3,-0.8 -1.1,-1.2 -0.9,-1.3 -0.5,-1.5 -0.2,-1.6 m 0,-170 v 170 m 0,-170 0.2,-1.6 0.5,-1.5 0.9,-1.4 1.1,-1.1 1.3,-0.8 1.5,-0.6 1.6,-0.1 1.6,0.1 1.5,0.6 1.3,0.8 1.1,1.1 0.9,1.4 0.5,1.5 0.2,1.6 m 28.3,170 -0.1,1.6 -0.6,1.5 -0.8,1.3 -1.1,1.2 -1.4,0.8 -1.5,0.5 -1.5,0.2 -1.6,-0.2 -1.5,-0.5 -1.4,-0.8 -1.1,-1.2 -0.8,-1.3 -0.6,-1.5 -0.1,-1.6 m 0,-170 v 170 m 0,-170 0.1,-1.6 0.6,-1.5 0.8,-1.4 1.1,-1.1 1.4,-0.8 1.5,-0.6 1.6,-0.1 1.5,0.1 1.5,0.6 1.4,0.8 1.1,1.1 0.8,1.4 0.6,1.5 0.1,1.6 m 141.8,170 -0.2,1.6 -0.5,1.5 -0.9,1.3 -1.1,1.2 -1.3,0.8 -1.5,0.5 -1.6,0.2 -1.6,-0.2 -1.5,-0.5 -1.3,-0.8 -1.2,-1.2 -0.8,-1.3 -0.5,-1.5 -0.2,-1.6 m 0,-170 v 170 m 0,-170 0.2,-1.6 0.5,-1.5 0.8,-1.4 1.2,-1.1 1.3,-0.8 1.5,-0.6 1.6,-0.1 1.6,0.1 1.5,0.6 1.3,0.8 1.1,1.1 0.9,1.4 0.5,1.5 0.2,1.6 m -28.4,170 -0.1,1.6 -0.6,1.5 -0.8,1.3 -1.1,1.2 -1.4,0.8 -1.5,0.5 -1.6,0.2 -1.5,-0.2 -1.5,-0.5 -1.4,-0.8 -1.1,-1.2 -0.8,-1.3 -0.6,-1.5 -0.1,-1.6 m 0,-170 v 170 m 0,-170 0.1,-1.6 0.6,-1.5 0.8,-1.4 1.1,-1.1 1.4,-0.8 1.5,-0.6 1.5,-0.1 1.6,0.1 1.5,0.6 1.4,0.8 1.1,1.1 0.8,1.4 0.6,1.5 0.1,1.6 m -28.3,170 -0.2,1.6 -0.5,1.5 -0.9,1.3 -1.1,1.2 -1.3,0.8 -1.5,0.5 -1.6,0.2 -1.6,-0.2 -1.5,-0.5 -1.3,-0.8 -1.1,-1.2 -0.9,-1.3 -0.5,-1.5 -0.2,-1.6 m 0,-170 v 170 m 0,-170 0.2,-1.6 0.5,-1.5 0.9,-1.4 1.1,-1.1 1.3,-0.8 1.5,-0.6 1.6,-0.1 1.6,0.1 1.5,0.6 1.3,0.8 1.1,1.1 0.9,1.4 0.5,1.5 0.2,1.6 m -28.4,170 -0.1,1.6 -0.6,1.5 -0.8,1.3 -1.1,1.2 -1.4,0.8 -1.5,0.5 -1.6,0.2 -1.5,-0.2 -1.5,-0.5 -1.4,-0.8 -1.1,-1.2 -0.8,-1.3 -0.6,-1.5 -0.1,-1.6 m 0,-170 v 170 m 0,-170 0.1,-1.6 0.6,-1.5 0.8,-1.4 1.1,-1.1 1.4,-0.8 1.5,-0.6 1.5,-0.1 1.6,0.1 1.5,0.6 1.4,0.8 1.1,1.1 0.8,1.4 0.6,1.5 0.1,1.6 m -28.3,170 -0.2,1.6 -0.5,1.5 -0.9,1.3 -1.1,1.2 -1.3,0.8 -1.5,0.5 -1.6,0.2 -1.6,-0.2 -1.5,-0.5 -1.3,-0.8 -1.1,-1.2 -0.9,-1.3 -0.5,-1.5 -0.2,-1.6 m 0,-170 v 170 m 0,-170 0.2,-1.6 0.5,-1.5 0.9,-1.4 1.1,-1.1 1.3,-0.8 1.5,-0.6 1.6,-0.1 1.6,0.1 1.5,0.6 1.3,0.8 1.1,1.1 0.9,1.4 0.5,1.5 0.2,1.6 M 0,255.2 H 382.6 M 382.6,0 V 255.2 M 0,0 h 382.6"
         style="fill:none;stroke:#ff0000;stroke-width:0.709;stroke-linecap:round;stroke-linejoin:round;stroke-miterlimit:10;stroke-dasharray:none;stroke-opacity:1"
         id="path12" /><text
         xml:space="preserve"
         style="font-style:normal;font-weight:normal;font-size:13.981px;line-height:1.25;font-family:sans-serif;fill:#000000;fill-opacity:1;stroke:none;stroke-width:0.582541"
         x="40.772148"
         y="-11.468586"
         id="text6632"
         transform="scale(1,-1)"><tspan
           sodipodi:role="line"
           id="tspan6630"
           style="font-style:normal;font-variant:normal;font-weight:bold;font-stretch:normal;font-size:13.981px;font-family:sans-serif;-inkscape-font-specification:'sans-serif Bold';stroke-width:0.582541"
           x="40.772148"
           y="-11.468586">github.com/mattsolution/YF-020H_dev_board</tspan></text></g></g></svg>
