<?xml version="1.0" encoding="UTF-8" standalone="no"?>
<!-- Created with Inkscape (http://www.inkscape.org/) -->

<svg
   version="1.1"
   id="svg2"
   xml:space="preserve"
   width="513.21198"
   height="343.07864"
   viewBox="0 0 513.21197 343.07865"
   sodipodi:docname="Top_part_tocut.svg"
   inkscape:version="1.1.2 (0a00cf5339, 2022-02-04)"
   xmlns:inkscape="http://www.inkscape.org/namespaces/inkscape"
   xmlns:sodipodi="http://sodipodi.sourceforge.net/DTD/sodipodi-0.dtd"
   xmlns="http://www.w3.org/2000/svg"
   xmlns:svg="http://www.w3.org/2000/svg"><defs
     id="defs6" /><sodipodi:namedview
     id="namedview4"
     pagecolor="#ffffff"
     bordercolor="#666666"
     borderopacity="1.0"
     inkscape:pageshadow="2"
     inkscape:pageopacity="0.0"
     inkscape:pagecheckerboard="0"
     showgrid="false"
     fit-margin-left="1"
     lock-margins="true"
     fit-margin-top="1"
     fit-margin-right="1"
     fit-margin-bottom="1"
     inkscape:zoom="0.794712"
     inkscape:cx="262.35919"
     inkscape:cy="364.91207"
     inkscape:window-width="1920"
     inkscape:window-height="1007"
     inkscape:window-x="0"
     inkscape:window-y="0"
     inkscape:window-maximized="1"
     inkscape:current-layer="g8" /><g
     id="g8"
     inkscape:groupmode="layer"
     inkscape:label="Top_part"
     transform="matrix(1.3333333,0,0,-1.3333333,-8.9273331,360.00599)"><g
       id="g10"
       transform="translate(229.6,127.5)"
       style="stroke:#ff0000;stroke-opacity:1"><path
         d="m 0,0 -0.8,-1 -1,-0.8 -1.2,-0.6 -1.2,-0.3 h -1.3 l -1.2,0.3 -1.2,0.5 -1,0.8 m 0,58.2 1,0.8 1.2,0.6 1.2,0.3 h 1.3 l 1.2,-0.3 1.2,-0.6 1,-0.8 0.8,-1 m -17.9,17.9 1,-0.8 0.8,-1 0.5,-1.1 0.3,-1.3 v -1.2 l -0.2,-1.3 -0.6,-1.1 -0.8,-1 m -58.2,0 -0.8,1 -0.6,1.1 -0.2,1.3 v 1.2 l 0.3,1.3 0.5,1.1 0.8,1 1,0.8 M -92,56.1 l 0.8,1 1,0.8 1.1,0.6 1.3,0.3 h 1.3 l 1.2,-0.3 1.2,-0.6 1,-0.8 m 0,-58.2 -1,-0.8 -1.2,-0.5 -1.2,-0.3 h -1.3 l -1.3,0.3 -1.1,0.6 -1,0.8 -0.8,1 m 17.9,-17.9 -1,0.7 -0.8,1 -0.5,1.2 -0.3,1.2 v 1.3 l 0.2,1.2 0.6,1.2 0.8,1 m 58.2,0 0.8,-1 0.6,-1.2 0.2,-1.2 v -1.3 l -0.3,-1.2 -0.5,-1.2 -0.8,-1 -1,-0.7 m 17.3,85.6 -1.4,0.2 -1.3,0.5 -1.1,0.7 -0.9,1.1 -0.6,1.2 -0.4,1.3 v 1.4 l 0.4,1.3 0.6,1.2 0.9,1 1.1,0.8 1.3,0.5 1.4,0.2 L 0.7,78.9 2,78.4 3.1,77.6 4,76.6 4.7,75.4 5,74.1 V 72.7 L 4.7,71.4 4,70.2 3.1,69.1 2,68.4 0.7,67.9 -0.6,67.7 m -73.5,-85.6 3.7,-2.1 3.9,-1.8 3.9,-1.4 4.1,-1.1 4.1,-0.9 4.2,-0.5 4.2,-0.1 4.2,0.1 4.2,0.5 4.1,0.9 4.1,1.1 3.9,1.4 3.9,1.8 3.7,2.1 m -74.1,74 -2,-3.7 -1.8,-3.8 -1.4,-4 -1.2,-4 -0.8,-4.2 -0.5,-4.2 -0.2,-4.2 0.2,-4.2 0.5,-4.2 0.8,-4.1 1.2,-4.1 1.4,-3.9 1.8,-3.8 2,-3.7 m 74.1,74 -3.7,2.1 -3.9,1.7 -3.9,1.5 -4.1,1.1 -4.1,0.8 -4.2,0.5 -4.2,0.2 -4.2,-0.2 -4.2,-0.5 -4.1,-0.8 -4.1,-1.1 -3.9,-1.5 -3.9,-1.7 -3.7,-2.1 m 127,-170.8 2.3,0.1 2.3,0.5 2.2,0.8 2.1,1.1 1.9,1.3 1.7,1.6 1.5,1.8 1.2,2 0.9,2.2 0.7,2.2 0.3,2.3 v 2.4 l -0.3,2.3 -0.7,2.3 -0.9,2.1 -1.2,2 -1.5,1.8 -1.7,1.6 -1.9,1.4 -2.1,1 -2.2,0.8 -2.3,0.5 -2.3,0.2 -2.4,-0.2 -2.3,-0.5 -2.2,-0.8 -2,-1 -2,-1.4 -1.7,-1.6 -1.4,-1.8 -1.3,-2 -0.9,-2.1 -0.6,-2.3 -0.3,-2.3 v -2.4 l 0.3,-2.3 0.6,-2.2 0.9,-2.2 1.3,-2 1.4,-1.8 1.7,-1.6 2,-1.3 2,-1.1 2.2,-0.8 2.3,-0.5 2.4,-0.1 m -83.7,117.7 21.9,-22 m -82.5,-21.9 1.4,0.2 1.3,0.5 1.1,0.7 0.9,1.1 0.6,1.2 0.4,1.3 v 1.4 l -0.4,1.3 -0.6,1.2 -0.9,1 -1.1,0.8 -1.3,0.5 -1.4,0.1 -1.3,-0.1 -1.3,-0.5 -1.1,-0.8 -0.9,-1 -0.7,-1.2 -0.3,-1.3 V -18 l 0.3,-1.3 0.7,-1.2 0.9,-1.1 1.1,-0.7 1.3,-0.5 1.3,-0.2 m 90.8,0 -1.4,0.2 -1.3,0.5 -1.1,0.7 -0.9,1.1 -0.6,1.2 -0.4,1.3 v 1.4 l 0.4,1.3 0.6,1.2 0.9,1 1.1,0.8 1.3,0.5 1.4,0.1 1.3,-0.1 1.3,-0.5 1.1,-0.8 0.9,-1 0.7,-1.2 0.3,-1.3 V -18 L 4.7,-19.3 4,-20.5 3.1,-21.6 2,-22.3 0.7,-22.8 -0.6,-23 m -90.8,90.7 1.4,0.2 1.3,0.5 1.1,0.7 0.9,1.1 0.6,1.2 0.4,1.3 v 1.4 l -0.4,1.3 -0.6,1.2 -0.9,1 -1.1,0.8 -1.3,0.5 -1.4,0.2 -1.3,-0.2 -1.3,-0.5 -1.1,-0.8 -0.9,-1 -0.7,-1.2 -0.3,-1.3 v -1.4 l 0.3,-1.3 0.7,-1.2 0.9,-1.1 1.1,-0.7 1.3,-0.5 1.3,-0.2 m 241,57.4 1.3,0.2 1.2,0.5 1,0.8 0.8,1 0.5,1.2 0.1,1.3 -0.1,1.3 -0.5,1.2 -0.8,1 -1,0.8 -1.2,0.5 -1.3,0.1 -1.3,-0.1 -1.2,-0.5 -1,-0.8 -0.8,-1 -0.5,-1.2 -0.2,-1.3 0.2,-1.3 0.5,-1.2 0.8,-1 1,-0.8 1.2,-0.5 1.3,-0.2 m 0,-232.4 1.3,0.1 1.2,0.5 1,0.8 0.8,1.1 0.5,1.2 0.1,1.2 -0.1,1.3 -0.5,1.2 -0.8,1 -1,0.8 -1.2,0.5 -1.3,0.2 -1.3,-0.2 -1.2,-0.5 -1,-0.8 -0.8,-1 -0.5,-1.2 -0.2,-1.3 0.2,-1.2 0.5,-1.2 0.8,-1.1 1,-0.8 1.2,-0.5 1.3,-0.1 m -360,0 1.3,0.1 1.2,0.5 1,0.8 0.8,1.1 0.5,1.2 0.1,1.2 -0.1,1.3 -0.5,1.2 -0.8,1 -1,0.8 -1.2,0.5 -1.3,0.2 -1.3,-0.2 -1.2,-0.5 -1,-0.8 -0.8,-1 -0.5,-1.2 -0.2,-1.3 0.2,-1.2 0.5,-1.2 0.8,-1.1 1,-0.8 1.2,-0.5 1.3,-0.1 m 0,232.4 1.3,0.2 1.2,0.5 1,0.8 0.8,1 0.5,1.2 0.1,1.3 -0.1,1.3 -0.5,1.2 -0.8,1 -1,0.8 -1.2,0.5 -1.3,0.1 -1.3,-0.1 -1.2,-0.5 -1,-0.8 -0.8,-1 -0.5,-1.2 -0.2,-1.3 0.2,-1.3 0.5,-1.2 0.8,-1 1,-0.8 1.2,-0.5 1.3,-0.2 m 371.3,-23 v 39.3 M -38.8,12.8 -16.9,-9.1 m -36.3,21.9 1.7,-0.6 1.8,-0.5 1.9,-0.4 1.8,-0.1 1.8,0.1 1.9,0.4 1.7,0.5 1.8,0.6 m -14.4,0 -21.9,-21.9 m 13.9,30 -21.9,-22 m 21.9,36.3 -0.7,-1.7 -0.5,-1.8 -0.3,-1.8 -0.1,-1.9 0.1,-1.8 0.3,-1.8 0.5,-1.8 0.7,-1.7 m 0,14.3 -21.9,21.9 m 29.9,-13.9 -21.9,22 m 36.3,-22 -1.8,0.7 -1.7,0.5 -1.9,0.3 -1.8,0.1 -1.8,-0.1 -1.9,-0.3 -1.8,-0.5 -1.7,-0.7 m 14.4,0 21.9,22 M 0,0 l 2,3.7 1.8,3.8 1.4,3.9 1.2,4.1 0.8,4.1 0.5,4.2 0.2,4.2 -0.2,4.2 -0.5,4.2 -0.8,4.2 -1.2,4 -1.4,4 L 2,52.4 0,56.1 M -30.8,35.2 -8.9,57.1 m -21.9,-36.2 0.7,1.7 0.5,1.8 0.3,1.8 0.1,1.8 -0.1,1.9 -0.3,1.8 -0.5,1.8 -0.7,1.7 m 191.7,66.9 h -18.4 m 0,0 V -86.6 m 18.4,0 h -18.4 m 18.4,-27.1 v 27.1 m -382.7,-27.1 h 382.7 m -382.7,0 v 21.5 m 0,0 h 18.5 m 0,5.6 v -5.6 m 0,5.6 h 16.2 m 0,46.9 v -46.9 m -16.2,46.9 h 16.2 m -16.2,160.6 V -39.7 m -18.5,160.6 h 18.5 m -18.5,0 v 20.5 m 0,0 h 72.8 m 0,0 V 123 m 0,0 H 52.9 m 0,18.4 V 123 m 0,18.4 h 108"
         style="fill:none;stroke:#ff0000;stroke-width:0.709;stroke-linecap:round;stroke-linejoin:round;stroke-miterlimit:10;stroke-dasharray:none;stroke-opacity:1"
         id="path12" /></g><text
       xml:space="preserve"
       style="font-style:normal;font-weight:normal;font-size:13.981px;line-height:1.25;font-family:sans-serif;fill:#000000;fill-opacity:1;stroke:none;stroke-width:0.582541"
       x="48.62215"
       y="-226.3246"
       id="text6632"
       transform="scale(1,-1)"><tspan
         sodipodi:role="line"
         id="tspan6630"
         style="font-style:normal;font-variant:normal;font-weight:bold;font-stretch:normal;font-size:13.981px;font-family:sans-serif;-inkscape-font-specification:'sans-serif Bold';stroke-width:0.582541"
         x="48.62215"
         y="-226.3246">github.com/mattsolution/YF-020H_dev_board</tspan></text></g></svg>
